<svg width="16" height="16" viewBox="0 0 16 16" fill="none" xmlns="http://www.w3.org/2000/svg">
<g clip-path="url(#clip0_0_42)">
<path d="M13.6 2.4H12.8V4H10.4V2.4H5.6V4H3.2V2.4H2.4C1.5192 2.4 0.799999 3.12 0.799999 4V13.6C0.799999 14.48 1.5192 15.2 2.4 15.2H13.6C14.48 15.2 15.2 14.48 15.2 13.6V4C15.2 3.12 14.48 2.4 13.6 2.4ZM13.6 13.6H2.4V7.2H13.6V13.6ZM5.2 0.800003H3.6V3.6H5.2V0.800003ZM12.4 0.800003H10.8V3.6H12.4V0.800003Z" fill="#7161EF"/>
</g>
<defs>
<clipPath id="clip0_0_42">
<rect width="16" height="16" fill="white"/>
</clipPath>
</defs>
</svg>
