<svg width="17" height="17" viewBox="0 0 17 17" fill="none" xmlns="http://www.w3.org/2000/svg">
<path d="M6.16746 13.9591L12.75 7.37658L9.62342 4.25L3.04088 10.8325C2.95025 10.9233 2.88588 11.0368 2.85458 11.1612L2.125 14.875L5.83808 14.1454C5.96275 14.1143 6.07679 14.0498 6.16746 13.9591ZM14.875 5.25158C15.1406 4.98592 15.2898 4.62565 15.2898 4.25C15.2898 3.87435 15.1406 3.51408 14.875 3.24842L13.7516 2.125C13.4859 1.85942 13.1256 1.71022 12.75 1.71022C12.3744 1.71022 12.0141 1.85942 11.7484 2.125L10.625 3.24842L13.7516 6.375L14.875 5.25158Z" fill="black" fill-opacity="0.5"/>
</svg>
