<svg width="42" height="48" viewBox="0 0 42 48" fill="none" xmlns="http://www.w3.org/2000/svg">
<path d="M28.1719 28.1953C30.2969 28.9297 32.2109 29.9531 33.9141 31.2656C35.6172 32.5781 37.0703 34.1094 38.2734 35.8594C39.4766 37.6094 40.3984 39.5078 41.0391 41.5547C41.6797 43.6016 42 45.75 42 48H39C39 45.4375 38.5469 43.0625 37.6406 40.875C36.7344 38.6875 35.4688 36.7812 33.8438 35.1562C32.2188 33.5312 30.3203 32.2734 28.1484 31.3828C25.9766 30.4922 23.5938 30.0312 21 30C19.3281 30 17.7188 30.2109 16.1719 30.6328C14.625 31.0547 13.1875 31.6484 11.8594 32.4141C10.5312 33.1797 9.32031 34.1094 8.22656 35.2031C7.13281 36.2969 6.20312 37.5078 5.4375 38.8359C4.67188 40.1641 4.07031 41.6094 3.63281 43.1719C3.19531 44.7344 2.98438 46.3438 3 48H0C0 45.75 0.328125 43.6016 0.984375 41.5547C1.64062 39.5078 2.57031 37.6172 3.77344 35.8828C4.97656 34.1484 6.42969 32.6328 8.13281 31.3359C9.83594 30.0391 11.75 29 13.875 28.2188C12.6562 27.5625 11.5625 26.7656 10.5938 25.8281C9.625 24.8906 8.80469 23.8516 8.13281 22.7109C7.46094 21.5703 6.9375 20.3438 6.5625 19.0312C6.1875 17.7188 6 16.375 6 15C6 12.9219 6.39062 10.9766 7.17188 9.16406C7.95312 7.35156 9.02344 5.75781 10.3828 4.38281C11.7422 3.00781 13.3281 1.9375 15.1406 1.17188C16.9531 0.40625 18.9062 0.015625 21 0C23.0781 0 25.0234 0.390625 26.8359 1.17188C28.6484 1.95312 30.2422 3.02344 31.6172 4.38281C32.9922 5.74219 34.0625 7.32812 34.8281 9.14062C35.5938 10.9531 35.9844 12.9062 36 15C36 16.375 35.8203 17.7109 35.4609 19.0078C35.1016 20.3047 34.5781 21.5234 33.8906 22.6641C33.2031 23.8047 32.3828 24.8438 31.4297 25.7812C30.4766 26.7188 29.3906 27.5234 28.1719 28.1953ZM9 15C9 16.6562 9.3125 18.2109 9.9375 19.6641C10.5625 21.1172 11.4219 22.3828 12.5156 23.4609C13.6094 24.5391 14.8828 25.3984 16.3359 26.0391C17.7891 26.6797 19.3438 27 21 27C22.6562 27 24.2109 26.6875 25.6641 26.0625C27.1172 25.4375 28.3828 24.5781 29.4609 23.4844C30.5391 22.3906 31.3984 21.1172 32.0391 19.6641C32.6797 18.2109 33 16.6562 33 15C33 13.3438 32.6875 11.7891 32.0625 10.3359C31.4375 8.88281 30.5781 7.61719 29.4844 6.53906C28.3906 5.46094 27.1172 4.60156 25.6641 3.96094C24.2109 3.32031 22.6562 3 21 3C19.3438 3 17.7891 3.3125 16.3359 3.9375C14.8828 4.5625 13.6172 5.42188 12.5391 6.51562C11.4609 7.60938 10.6016 8.88281 9.96094 10.3359C9.32031 11.7891 9 13.3438 9 15Z" fill="#BCBCBC"/>
</svg>
