<svg width="16" height="22" viewBox="0 0 16 22" fill="none" xmlns="http://www.w3.org/2000/svg">
<path d="M2.00001 10.625C2.00001 10.8917 2.01668 11.1543 2.05001 11.413C2.08334 11.6717 2.14168 11.9257 2.22501 12.175C2.30834 12.4583 2.30001 12.7293 2.20001 12.988C2.10001 13.2467 1.92501 13.434 1.67501 13.55C1.40834 13.6833 1.14601 13.696 0.888011 13.588C0.630011 13.48 0.459011 13.284 0.375011 13C0.241678 12.6167 0.145678 12.225 0.0870111 11.825C0.0283445 11.425 -0.000655431 11.025 1.1236e-05 10.625C1.1236e-05 8.39167 0.775011 6.49167 2.32501 4.925C3.87501 3.35833 5.76668 2.575 8.00001 2.575H8.17501L7.27501 1.675C7.09168 1.49167 7.00001 1.25833 7.00001 0.975C7.00001 0.691667 7.09168 0.458333 7.27501 0.275C7.45834 0.0916668 7.69168 0 7.97501 0C8.25835 0 8.49168 0.0916668 8.67501 0.275L11.275 2.875C11.475 3.075 11.575 3.30833 11.575 3.575C11.575 3.84167 11.475 4.075 11.275 4.275L8.67501 6.875C8.49168 7.05833 8.25835 7.15 7.97501 7.15C7.69168 7.15 7.45834 7.05833 7.27501 6.875C7.09168 6.69167 7.00001 6.45833 7.00001 6.175C7.00001 5.89167 7.09168 5.65833 7.27501 5.475L8.17501 4.575H8.00001C6.33334 4.575 4.91668 5.16267 3.75001 6.338C2.58334 7.51333 2.00001 8.94233 2.00001 10.625ZM14 10.525C14 10.2583 13.9833 9.996 13.95 9.738C13.9167 9.48 13.8583 9.22567 13.775 8.975C13.6917 8.69167 13.7 8.421 13.8 8.163C13.9 7.905 14.075 7.71733 14.325 7.6C14.5917 7.46667 14.854 7.45433 15.112 7.563C15.37 7.67167 15.541 7.86733 15.625 8.15C15.7583 8.53333 15.8543 8.925 15.913 9.325C15.9717 9.725 16.0007 10.125 16 10.525C16 12.7583 15.225 14.6583 13.675 16.225C12.125 17.7917 10.2333 18.575 8.00001 18.575H7.82501L8.72501 19.475C8.90835 19.6583 9.00001 19.8917 9.00001 20.175C9.00001 20.4583 8.90835 20.6917 8.72501 20.875C8.54168 21.0583 8.30834 21.15 8.02501 21.15C7.74168 21.15 7.50834 21.0583 7.32501 20.875L4.72501 18.275C4.52501 18.075 4.42501 17.8417 4.42501 17.575C4.42501 17.3083 4.52501 17.075 4.72501 16.875L7.32501 14.275C7.50834 14.0917 7.74168 14 8.02501 14C8.30834 14 8.54168 14.0917 8.72501 14.275C8.90835 14.4583 9.00001 14.6917 9.00001 14.975C9.00001 15.2583 8.90835 15.4917 8.72501 15.675L7.82501 16.575H8.00001C9.66668 16.575 11.0833 15.9877 12.25 14.813C13.4167 13.6383 14 12.209 14 10.525Z" fill="white"/>
</svg>
