<svg width="16" height="16" viewBox="0 0 16 16" fill="none" xmlns="http://www.w3.org/2000/svg">
<path d="M8 13.6667C11.3137 13.6667 14 10.8927 14 8.99999C14 7.10733 11.3137 4.33333 8 4.33333C4.68633 4.33333 2 7.10933 2 8.99999C2 10.8907 4.68633 13.6667 8 13.6667Z" stroke="#E2E2E2" stroke-width="2" stroke-linejoin="round"/>
<path d="M8 11C8.53043 11 9.03914 10.7893 9.41421 10.4142C9.78929 10.0391 10 9.53043 10 9C10 8.46957 9.78929 7.96086 9.41421 7.58579C9.03914 7.21071 8.53043 7 8 7C7.46957 7 6.96086 7.21071 6.58579 7.58579C6.21071 7.96086 6 8.46957 6 9C6 9.53043 6.21071 10.0391 6.58579 10.4142C6.96086 10.7893 7.46957 11 8 11Z" stroke="#E2E2E2" stroke-width="2" stroke-linejoin="round"/>
<path d="M4.42133 3.75533L5.28599 4.96199M11.875 3.90333L11.01 5.10999M8.00299 2.33333V4.33333" stroke="#E2E2E2" stroke-width="2" stroke-linecap="round"/>
</svg>
