<svg width="196" height="69" viewBox="0 0 196 69" fill="none" xmlns="http://www.w3.org/2000/svg">
<path d="M0 1.07043H24V5.84316H5.81818V11.2977H21.0909V15.3886H5.81818V31.0704H0" stroke="#1C128A" stroke-width="2"/>
<path d="M26.7812 12.3594V7.96875H32.0938V12.3594H26.7812ZM26.8438 32V14.4688H32.0625V32H26.8438ZM38.7812 25.5V18.375H35.2656V14.4688H37.3125C37.6979 14.4688 38 14.4583 38.2188 14.4375C38.4479 14.4062 38.6615 14.3333 38.8594 14.2188C39.0677 14.0938 39.2188 13.9479 39.3125 13.7812C39.4167 13.6146 39.5156 13.3438 39.6094 12.9688C39.7031 12.5938 39.7708 12.1927 39.8125 11.7656C39.8646 11.3281 39.9167 10.7344 39.9688 9.98438H44.0312V14.4688H51.8906V18.375H44.0312V24.8594C44.0312 26.1615 44.3125 27.0573 44.875 27.5469C45.4479 28.0365 46.4688 28.2812 47.9375 28.2812C49.3229 28.2812 50.7292 28.1354 52.1562 27.8438L52 31.8125C50.3854 32.1771 48.5833 32.3594 46.5938 32.3594C43.8958 32.3594 41.9167 31.8281 40.6562 30.7656C39.4062 29.6927 38.7812 27.9375 38.7812 25.5Z" fill="#1C128A"/>
<path d="M57.3281 63V40.5938H63.2188L73.0156 54.5781L82.7031 40.5938H88.5312V63H83.375V47.5469L75.3125 59.3125H70.5781L62.4844 47.6719V63H57.3281ZM104.969 63.3594C101.323 63.3594 98.4792 62.5521 96.4375 60.9375C94.3958 59.3125 93.375 57.0781 93.375 54.2344C93.375 51.3906 94.3958 49.1615 96.4375 47.5469C98.4792 45.9219 101.323 45.1094 104.969 45.1094C108.615 45.1094 111.453 45.9219 113.484 47.5469C115.526 49.1615 116.547 51.3906 116.547 54.2344C116.547 57.099 115.531 59.3385 113.5 60.9531C111.479 62.5573 108.635 63.3594 104.969 63.3594ZM104.969 59.3594C109.125 59.3594 111.203 57.651 111.203 54.2344C111.203 50.8177 109.125 49.1094 104.969 49.1094C100.802 49.1094 98.7188 50.8177 98.7188 54.2344C98.7188 57.651 100.802 59.3594 104.969 59.3594ZM121.969 56.5V49.375H118.453V45.4688H120.5C120.885 45.4688 121.188 45.4583 121.406 45.4375C121.635 45.4062 121.849 45.3333 122.047 45.2188C122.255 45.0938 122.406 44.9479 122.5 44.7812C122.604 44.6146 122.703 44.3438 122.797 43.9688C122.891 43.5938 122.958 43.1927 123 42.7656C123.052 42.3281 123.104 41.7344 123.156 40.9844H127.219V45.4688H135.078V49.375H127.219V55.8594C127.219 57.1615 127.5 58.0573 128.062 58.5469C128.635 59.0365 129.656 59.2812 131.125 59.2812C132.51 59.2812 133.917 59.1354 135.344 58.8438L135.188 62.8125C133.573 63.1771 131.771 63.3594 129.781 63.3594C127.083 63.3594 125.104 62.8281 123.844 61.7656C122.594 60.6927 121.969 58.9375 121.969 56.5ZM139.219 43.3594V38.9688H144.531V43.3594H139.219ZM139.281 63V45.4688H144.5V63H139.281ZM156.719 63L147.531 45.4688H153.328L159.031 57.1406L164.656 45.4688H170.062L161.047 63H156.719ZM182.781 63.3594C179.156 63.3594 176.307 62.5417 174.234 60.9062C172.161 59.2708 171.125 57.0365 171.125 54.2031C171.125 51.4531 172.151 49.25 174.203 47.5938C176.266 45.9375 179.094 45.1094 182.688 45.1094C184.958 45.1094 186.943 45.4583 188.641 46.1562C190.349 46.8438 191.667 47.8385 192.594 49.1406C193.521 50.4323 193.984 51.9479 193.984 53.6875C193.984 54.2604 193.917 54.8594 193.781 55.4844H176.344C176.844 58.1719 179 59.5156 182.812 59.5156C186.219 59.5156 188.214 58.6927 188.797 57.0469L193.844 57.9375C193.24 59.7604 192.057 61.1198 190.297 62.0156C188.536 62.9115 186.031 63.3594 182.781 63.3594ZM182.719 48.8594C179.177 48.8594 177.083 50.0417 176.438 52.4062H188.828C188.286 50.0417 186.25 48.8594 182.719 48.8594Z" fill="#1C128A"/>
</svg>
