<svg width="226" height="71" viewBox="0 0 226 71" fill="none" xmlns="http://www.w3.org/2000/svg">
<path d="M0 1H24V5.73239H5.81818V11.1408H21.0909V15.1972H5.81818V30.7465H0" stroke="#1C128A" stroke-width="2"/>
<path d="M34.125 34.2889C30.4792 34.2889 27.6354 33.4816 25.5938 31.8671C23.5521 30.2421 22.5312 28.0077 22.5312 25.1639C22.5312 22.3202 23.5521 20.091 25.5938 18.4764C27.6354 16.8514 30.4792 16.0389 34.125 16.0389C37.7708 16.0389 40.6094 16.8514 42.6406 18.4764C44.6823 20.091 45.7031 22.3202 45.7031 25.1639C45.7031 28.0285 44.6875 30.2681 42.6562 31.8827C40.6354 33.4869 37.7917 34.2889 34.125 34.2889ZM34.125 30.2889C38.2812 30.2889 40.3594 28.5806 40.3594 25.1639C40.3594 21.7473 38.2812 20.0389 34.125 20.0389C29.9583 20.0389 27.875 21.7473 27.875 25.1639C27.875 28.5806 29.9583 30.2889 34.125 30.2889ZM50.0625 33.9296V16.3983H54.7656L55.1875 20.6171C56.125 19.2108 57.3229 18.0962 58.7812 17.2733C60.2396 16.4504 61.8125 16.0389 63.5 16.0389C63.8333 16.0389 64.1458 16.0598 64.4375 16.1014L64.2812 21.3827C63.7396 21.2369 63.0208 21.1639 62.125 21.1639C60.0312 21.1639 58.375 21.6744 57.1562 22.6952C55.9375 23.7056 55.3229 25.1587 55.3125 27.0546V33.9296H50.0625ZM67.8438 33.9296V16.3983H72.5469L72.9062 19.8827C73.7292 18.6744 74.7812 17.7316 76.0625 17.0546C77.3542 16.3775 78.776 16.0389 80.3281 16.0389C82.0052 16.0389 83.4219 16.3879 84.5781 17.0858C85.7448 17.7837 86.5885 18.7785 87.1094 20.0702C87.9323 18.8098 89.0208 17.8254 90.375 17.1171C91.7292 16.3983 93.2344 16.0389 94.8906 16.0389C97.2135 16.0389 99.0312 16.69 100.344 17.9921C101.656 19.2941 102.312 21.1066 102.312 23.4296V33.9296H97.0625V24.3983C97.0625 23.1066 96.7188 22.1066 96.0312 21.3983C95.3438 20.69 94.3438 20.3358 93.0312 20.3358C91.3958 20.3358 90.0938 20.8358 89.125 21.8358C88.1667 22.8254 87.6875 24.1587 87.6875 25.8358V33.9296H82.4688V24.3671C82.4688 23.0754 82.1198 22.0806 81.4219 21.3827C80.7344 20.6848 79.7292 20.3358 78.4062 20.3358C76.7708 20.3358 75.474 20.8358 74.5156 21.8358C73.5677 22.8254 73.0938 24.1587 73.0938 25.8358V33.9296H67.8438Z" fill="#1C128A"/>
<path d="M68.3281 64V41.5938H90.0312V45.9531H73.8281V51.4844H88.1719V55.875H73.8281V64H68.3281ZM91.6875 51.7188C92.2083 49.8229 93.3125 48.4167 95 47.5C96.6979 46.5729 99.0417 46.1094 102.031 46.1094C105.448 46.1094 107.943 46.651 109.516 47.7344C111.099 48.8177 111.891 50.5156 111.891 52.8281V59.2656C111.891 59.7031 111.984 60.0208 112.172 60.2188C112.359 60.4167 112.656 60.5156 113.062 60.5156C113.271 60.5156 113.521 60.4948 113.812 60.4531L113.703 63.9375C112.943 64.1875 112.135 64.3125 111.281 64.3125C108.76 64.3125 107.375 63.2031 107.125 60.9844C106.188 62.0573 104.969 62.8906 103.469 63.4844C101.979 64.0677 100.318 64.3594 98.4844 64.3594C96.1615 64.3594 94.3438 63.8958 93.0312 62.9688C91.7292 62.0417 91.0781 60.7552 91.0781 59.1094C91.0781 57.4635 91.7188 56.2031 93 55.3281C94.2812 54.4427 96.3073 53.8854 99.0781 53.6562L106.984 53.125C106.953 51.9688 106.542 51.1302 105.75 50.6094C104.969 50.0885 103.698 49.8281 101.938 49.8281C100.312 49.8281 99.0781 50.0469 98.2344 50.4844C97.401 50.9219 96.9062 51.599 96.75 52.5156L91.6875 51.7188ZM96.1719 58.7812C96.1719 59.4375 96.4427 59.9219 96.9844 60.2344C97.5365 60.5469 98.3958 60.7031 99.5625 60.7031C100.948 60.7031 102.208 60.5208 103.344 60.1562C104.49 59.7917 105.391 59.2812 106.047 58.625C106.714 57.9688 107.047 57.2344 107.047 56.4219V56.1562L98.9531 56.7969C97.099 56.9531 96.1719 57.6146 96.1719 58.7812ZM138.594 52.6094L133.406 53.5625C132.885 51.2604 130.979 50.1094 127.688 50.1094C125.635 50.1094 124.089 50.5469 123.047 51.4219C122.016 52.2865 121.5 53.5573 121.5 55.2344C121.5 56.901 122.021 58.1719 123.062 59.0469C124.104 59.9219 125.646 60.3594 127.688 60.3594C129.406 60.3594 130.74 60.0677 131.688 59.4844C132.635 58.901 133.24 57.9948 133.5 56.7656L138.625 57.7344C138.146 59.8698 136.958 61.5104 135.062 62.6562C133.177 63.7917 130.719 64.3594 127.688 64.3594C124.083 64.3594 121.26 63.5469 119.219 61.9219C117.177 60.2969 116.156 58.0677 116.156 55.2344C116.156 52.401 117.177 50.1719 119.219 48.5469C121.26 46.9219 124.083 46.1094 127.688 46.1094C130.708 46.1094 133.151 46.6667 135.016 47.7812C136.891 48.8854 138.083 50.4948 138.594 52.6094ZM143.531 57.5V50.375H140.016V46.4688H142.062C142.448 46.4688 142.75 46.4583 142.969 46.4375C143.198 46.4062 143.411 46.3333 143.609 46.2188C143.818 46.0938 143.969 45.9479 144.062 45.7812C144.167 45.6146 144.266 45.3438 144.359 44.9688C144.453 44.5938 144.521 44.1927 144.562 43.7656C144.615 43.3281 144.667 42.7344 144.719 41.9844H148.781V46.4688H156.641V50.375H148.781V56.8594C148.781 58.1615 149.062 59.0573 149.625 59.5469C150.198 60.0365 151.219 60.2812 152.688 60.2812C154.073 60.2812 155.479 60.1354 156.906 59.8438L156.75 63.8125C155.135 64.1771 153.333 64.3594 151.344 64.3594C148.646 64.3594 146.667 63.8281 145.406 62.7656C144.156 61.6927 143.531 59.9375 143.531 57.5ZM171 64.3594C167.354 64.3594 164.51 63.5521 162.469 61.9375C160.427 60.3125 159.406 58.0781 159.406 55.2344C159.406 52.3906 160.427 50.1615 162.469 48.5469C164.51 46.9219 167.354 46.1094 171 46.1094C174.646 46.1094 177.484 46.9219 179.516 48.5469C181.557 50.1615 182.578 52.3906 182.578 55.2344C182.578 58.099 181.562 60.3385 179.531 61.9531C177.51 63.5573 174.667 64.3594 171 64.3594ZM171 60.3594C175.156 60.3594 177.234 58.651 177.234 55.2344C177.234 51.8177 175.156 50.1094 171 50.1094C166.833 50.1094 164.75 51.8177 164.75 55.2344C164.75 58.651 166.833 60.3594 171 60.3594ZM186.938 64V46.4688H191.641L192.062 50.6875C193 49.2812 194.198 48.1667 195.656 47.3438C197.115 46.5208 198.688 46.1094 200.375 46.1094C200.708 46.1094 201.021 46.1302 201.312 46.1719L201.156 51.4531C200.615 51.3073 199.896 51.2344 199 51.2344C196.906 51.2344 195.25 51.7448 194.031 52.7656C192.812 53.776 192.198 55.2292 192.188 57.125V64H186.938ZM219.594 46.4688H225.062L216.359 64.25C215.161 66.6875 213.938 68.3802 212.688 69.3281C211.448 70.276 209.792 70.75 207.719 70.75C206.49 70.75 205.432 70.6146 204.547 70.3438L204.359 66.4375C205.078 66.5833 205.854 66.6562 206.688 66.6562C207.969 66.6562 208.943 66.4375 209.609 66C210.286 65.5729 210.948 64.7031 211.594 63.3906L202.688 46.4688H208.453L214.25 58.3438L219.594 46.4688Z" fill="#1C128A"/>
</svg>
