<svg width="7" height="4" viewBox="0 0 7 4" fill="none" xmlns="http://www.w3.org/2000/svg">
<path fill-rule="evenodd" clip-rule="evenodd" d="M0 2C0 2.05893 0.0263376 2.11544 0.0732183 2.15711C0.1201 2.19878 0.183684 2.22219 0.249984 2.22219L6.14611 2.22219L4.57271 3.62022C4.52577 3.66194 4.4994 3.71853 4.4994 3.77753C4.4994 3.83653 4.52577 3.89312 4.57271 3.93484C4.61965 3.97656 4.68331 4 4.7497 4C4.81608 4 4.87975 3.97656 4.92669 3.93484L6.92656 2.15731C6.94984 2.13667 6.96831 2.11215 6.98091 2.08516C6.99351 2.05816 7 2.02923 7 2C7 1.97077 6.99351 1.94184 6.98091 1.91484C6.96831 1.88785 6.94984 1.86333 6.92656 1.84269L4.92669 0.0651604C4.90344 0.044502 4.87585 0.0281149 4.84548 0.0169347C4.81511 0.00575442 4.78257 0 4.7497 0C4.68331 0 4.61965 0.0234389 4.57271 0.0651604C4.52577 0.106882 4.4994 0.163469 4.4994 0.222472C4.4994 0.281475 4.52577 0.338061 4.57271 0.379783L6.14611 1.77781L0.249984 1.77781C0.183684 1.77781 0.1201 1.80122 0.0732183 1.84289C0.0263376 1.88456 0 1.94107 0 2Z" fill="white"/>
</svg>
